<svg width="24" height="24" viewBox="0 0 24 24" fill="none" xmlns="http://www.w3.org/2000/svg">
<path fill-rule="evenodd" clip-rule="evenodd" d="M12 0C12.5523 0 13 0.447715 13 1V23C13 23.5523 12.5523 24 12 24C11.4477 24 11 23.5523 11 23V1C11 0.447715 11.4477 0 12 0Z" fill="#0D1C2F"/>
<path fill-rule="evenodd" clip-rule="evenodd" d="M-4.37114e-08 12C-6.78525e-08 11.4477 0.447715 11 1 11L23 11C23.5523 11 24 11.4477 24 12C24 12.5523 23.5523 13 23 13L1 13C0.447715 13 -1.95703e-08 12.5523 -4.37114e-08 12Z" fill="#0D1C2F"/>
</svg>
