<svg width="20" height="20" viewBox="0 0 20 20" fill="none" xmlns="http://www.w3.org/2000/svg">
<path fill-rule="evenodd" clip-rule="evenodd" d="M13.8787 10.2929C13.4882 10.6834 13.4882 11.3166 13.8787 11.7071L16.1716 14H6.58579C6.0335 14 5.58579 14.4477 5.58579 15C5.58579 15.5523 6.0335 16 6.58579 16H16.1716L13.8787 18.2929C13.4882 18.6834 13.4882 19.3166 13.8787 19.7071C14.2692 20.0976 14.9024 20.0976 15.2929 19.7071L20 15L15.2929 10.2929C14.9024 9.90237 14.2692 9.90237 13.8787 10.2929Z" fill="#FEFEFE"/>
<path fill-rule="evenodd" clip-rule="evenodd" d="M6.29271 0.292893C6.68323 0.683418 6.68323 1.31658 6.29271 1.70711L3.99981 4H13.5856C14.1379 4 14.5856 4.44771 14.5856 5C14.5856 5.55228 14.1379 6 13.5856 6H3.99981L6.29271 8.29289C6.68323 8.68342 6.68323 9.31658 6.29271 9.70711C5.90218 10.0976 5.26902 10.0976 4.87849 9.70711L0.171387 5L4.87849 0.292893C5.26902 -0.0976311 5.90218 -0.097631 6.29271 0.292893Z" fill="#FEFEFE"/>
<path d="M1.58569 15C1.58569 15.5523 2.03341 16 2.58569 16C3.13798 16 3.58569 15.5523 3.58569 15C3.58569 14.4477 3.13798 14 2.58569 14C2.03341 14 1.58569 14.4477 1.58569 15Z" fill="#FEFEFE"/>
<path d="M18.5857 5C18.5857 5.55228 18.138 6 17.5857 6C17.0334 6 16.5857 5.55228 16.5857 5C16.5857 4.44772 17.0334 4 17.5857 4C18.138 4 18.5857 4.44772 18.5857 5Z" fill="#FEFEFE"/>
</svg>
