<svg width="36" height="36" viewBox="0 0 36 36" fill="none" xmlns="http://www.w3.org/2000/svg">
<path fill-rule="evenodd" clip-rule="evenodd" d="M26.7069 10.7071C27.0974 10.3166 27.0974 9.68342 26.7069 9.2929C26.3164 8.90237 25.6832 8.90237 25.2927 9.2929L18 16.5857L10.7073 9.2929C10.3168 8.90238 9.68362 8.90238 9.2931 9.2929C8.90258 9.68343 8.90258 10.3166 9.2931 10.7071L16.5858 17.9999L9.29301 25.2929C8.90249 25.6834 8.90249 26.3166 9.29301 26.7071C9.68353 27.0976 10.3167 27.0976 10.7072 26.7071L18 19.4142L25.2929 26.707C25.6834 27.0976 26.3166 27.0976 26.7071 26.707C27.0976 26.3165 27.0976 25.6834 26.7071 25.2928L19.4142 17.9999L26.7069 10.7071Z" fill="#FEFEFE"/>
</svg>
