<svg width="36" height="36" viewBox="0 0 36 36" fill="none" xmlns="http://www.w3.org/2000/svg">
<path fill-rule="evenodd" clip-rule="evenodd" d="M26.7068 10.7071C27.0973 10.3166 27.0973 9.68342 26.7068 9.2929C26.3163 8.90237 25.6831 8.90237 25.2926 9.2929L17.9999 16.5857L10.7072 9.2929C10.3167 8.90238 9.6835 8.90238 9.29298 9.2929C8.90245 9.68343 8.90245 10.3166 9.29298 10.7071L16.5857 17.9999L9.29289 25.2929C8.90237 25.6834 8.90237 26.3166 9.29289 26.7071C9.68341 27.0976 10.3166 27.0976 10.7071 26.7071L17.9999 19.4142L25.2928 26.707C25.6833 27.0976 26.3164 27.0976 26.707 26.707C27.0975 26.3165 27.0975 25.6834 26.707 25.2928L19.4141 17.9999L26.7068 10.7071Z" fill="#FEFEFE"/>
</svg>
