<svg width="22" height="22" viewBox="0 0 22 22" fill="none" xmlns="http://www.w3.org/2000/svg">
<path fill-rule="evenodd" clip-rule="evenodd" d="M18 0C18.5523 0 19 0.447715 19 1V3H21C21.5523 3 22 3.44771 22 4C22 4.55228 21.5523 5 21 5H19V7C19 7.55228 18.5523 8 18 8C17.4477 8 17 7.55228 17 7V5H15C14.4477 5 14 4.55228 14 4C14 3.44772 14.4477 3 15 3H17V1C17 0.447715 17.4477 0 18 0ZM3 5C2.44772 5 2 5.44772 2 6V19C2 19.5523 2.44772 20 3 20H16C16.5523 20 17 19.5523 17 19V11C17 10.4477 17.4477 10 18 10C18.5523 10 19 10.4477 19 11V19C19 20.6569 17.6569 22 16 22H3C1.34315 22 0 20.6569 0 19V6C0 4.34315 1.34315 3 3 3H11C11.5523 3 12 3.44772 12 4C12 4.55228 11.5523 5 11 5H3Z" fill="#FEFEFE"/>
</svg>
