<svg width="32" height="23" viewBox="0 0 32 23" fill="none" xmlns="http://www.w3.org/2000/svg">
<path d="M32 18.8333C32 20.8557 30.4056 22.5 28.4444 22.5H11.4056C10.4611 22.5 9.55556 22.1161 8.88889 21.4286L0.520667 12.7948C0.187278 12.451 0 11.987 0 11.5C0 11.013 0.187333 10.549 0.520667 10.2052L8.88889 1.57422C9.55556 0.886146 10.4611 0.5 11.4056 0.5H28.4444C30.4056 0.5 32 2.14141 32 4.16667V18.8333Z" fill="#101010"/>
<path fill-rule="evenodd" clip-rule="evenodd" d="M16.8114 6.81077C16.397 6.39641 15.7252 6.39641 15.3108 6.81077C14.8964 7.22514 14.8964 7.89696 15.3108 8.31133L18.4995 11.5L15.3108 14.6887C14.8964 15.103 14.8964 15.7749 15.3108 16.1892C15.7251 16.6036 16.397 16.6036 16.8113 16.1892L20 13.0005L23.1887 16.1892C23.603 16.6036 24.2749 16.6036 24.6892 16.1892C25.1036 15.7749 25.1036 15.103 24.6892 14.6887L21.5005 11.5L24.6892 8.31133C25.1036 7.89696 25.1036 7.22514 24.6892 6.81078C24.2748 6.39641 23.603 6.39641 23.1886 6.81078L20 9.99943L16.8114 6.81077Z" fill="#FEFEFE"/>
</svg>
